# xmcd
#
# Track frame offsets:
#	150
#	19275
#	37050
#	55950
#	76052
#	92253
#	112803
#	128330
#	144080
#	162005
#
# Disc length: 2449 seconds
#
# Revision: 4
# Processed by: cddbd v1.5.2PL0 Copyright (c) Steve Scherf et al.
# Submitted via: EasyCDDAExtractor 15.3.0.1
#
DISCID=68098f0a
DTITLE=Laura Flores - Nunca Hagas Llorar A Una Mujer
DYEAR=1995
DGENRE=Latin
TTITLE0=Antes De Que Te Vayas
TTITLE1=Te Felicito
TTITLE2=Sobran Tantos Como Tu
TTITLE3=Porque Se Que Me Mientes
TTITLE4=Y Ya Sera Muy Tarde
TTITLE5=Nunca Hagas Llorar A Una Mujer
TTITLE6=Por Si No Lo Sabias
TTITLE7=Una Semana Sin Ti
TTITLE8=Hablemos Claro
TTITLE9=Sola
EXTD=
EXTT0=
EXTT1=
EXTT2=
EXTT3=
EXTT4=
EXTT5=
EXTT6=
EXTT7=
EXTT8=
EXTT9=
PLAYORDER=
